{
	"patcher" : 	{
		"fileversion" : 1,
		"rect" : [ 40.0, 44.0, 668.0, 264.0 ],
		"bglocked" : 0,
		"defrect" : [ 40.0, 44.0, 668.0, 264.0 ],
		"openrect" : [ 0.0, 0.0, 0.0, 0.0 ],
		"openinpresentation" : 0,
		"default_fontsize" : 12.0,
		"default_fontface" : 0,
		"default_fontname" : "Arial",
		"gridonopen" : 0,
		"gridsize" : [ 5.0, 5.0 ],
		"gridsnaponopen" : 0,
		"toolbarvisible" : 1,
		"boxanimatetime" : 200,
		"imprint" : 0,
		"boxes" : [ 			{
				"box" : 				{
					"maxclass" : "outlet",
					"varname" : "out[3]",
					"patching_rect" : [ 226.0, 150.0, 25.0, 25.0 ],
					"numinlets" : 1,
					"id" : "obj-12",
					"numoutlets" : 0,
					"comment" : "(signal) Sum"
				}

			}
, 			{
				"box" : 				{
					"maxclass" : "outlet",
					"varname" : "out[2]",
					"patching_rect" : [ 165.666672, 150.0, 25.0, 25.0 ],
					"numinlets" : 1,
					"id" : "obj-11",
					"numoutlets" : 0,
					"comment" : "(signal) Maximum"
				}

			}
, 			{
				"box" : 				{
					"maxclass" : "outlet",
					"varname" : "out[1]",
					"patching_rect" : [ 105.333336, 150.0, 25.0, 25.0 ],
					"numinlets" : 1,
					"id" : "obj-9",
					"numoutlets" : 0,
					"presentation_rect" : [ 105.0, 145.0, 0.0, 0.0 ],
					"comment" : "(signal) Mean"
				}

			}
, 			{
				"box" : 				{
					"maxclass" : "comment",
					"text" : "This abstraction automatically creates the appropriate pfft object with the correct window size and step size. Its only goal is to provide an easy way of getting an unique descriptor. If you want to use multiple descriptors at once, create your own pfft~ abstraction.",
					"linecount" : 3,
					"patching_rect" : [ 76.0, 189.0, 556.0, 48.0 ],
					"numinlets" : 1,
					"fontsize" : 12.0,
					"id" : "obj-37",
					"numoutlets" : 0,
					"fontname" : "Arial"
				}

			}
, 			{
				"box" : 				{
					"maxclass" : "newobj",
					"text" : "prepend script replace pfft newex 0 0 200 12 pfft~ zsa.abs_ampstats~",
					"patching_rect" : [ 275.0, 111.0, 381.0, 20.0 ],
					"numinlets" : 1,
					"fontsize" : 12.0,
					"id" : "obj-10",
					"numoutlets" : 1,
					"outlettype" : [ "" ],
					"fontname" : "Arial"
				}

			}
, 			{
				"box" : 				{
					"maxclass" : "newobj",
					"text" : "thispatcher",
					"patching_rect" : [ 275.0, 144.0, 69.0, 20.0 ],
					"numinlets" : 1,
					"fontsize" : 12.0,
					"id" : "obj-5",
					"numoutlets" : 2,
					"outlettype" : [ "", "" ],
					"fontname" : "Arial",
					"save" : [ "#N", "thispatcher", ";", "#Q", "end", ";" ]
				}

			}
, 			{
				"box" : 				{
					"maxclass" : "newobj",
					"text" : "patcherargs 2048 4",
					"patching_rect" : [ 275.0, 81.0, 114.0, 20.0 ],
					"numinlets" : 1,
					"fontsize" : 12.0,
					"id" : "obj-3",
					"numoutlets" : 2,
					"outlettype" : [ "", "" ],
					"fontname" : "Arial"
				}

			}
, 			{
				"box" : 				{
					"maxclass" : "outlet",
					"varname" : "out",
					"patching_rect" : [ 45.0, 150.0, 25.0, 25.0 ],
					"numinlets" : 1,
					"id" : "obj-2",
					"numoutlets" : 0,
					"comment" : "(signal) Minimum"
				}

			}
, 			{
				"box" : 				{
					"maxclass" : "inlet",
					"varname" : "in",
					"patching_rect" : [ 45.0, 50.0, 25.0, 25.0 ],
					"numinlets" : 0,
					"id" : "obj-1",
					"numoutlets" : 1,
					"outlettype" : [ "" ],
					"comment" : "Signal In"
				}

			}
, 			{
				"box" : 				{
					"maxclass" : "newobj",
					"varname" : "pfft",
					"text" : "pfft~ zsa.abs_ampstats~ 2048 4",
					"patching_rect" : [ 45.0, 102.0, 200.0, 20.0 ],
					"numinlets" : 1,
					"fontsize" : 12.0,
					"id" : "obj-4",
					"numoutlets" : 4,
					"outlettype" : [ "signal", "signal", "signal", "signal" ],
					"fontname" : "Arial"
				}

			}
 ],
		"lines" : [ 			{
				"patchline" : 				{
					"source" : [ "obj-4", 1 ],
					"destination" : [ "obj-9", 0 ],
					"hidden" : 0,
					"midpoints" : [  ]
				}

			}
, 			{
				"patchline" : 				{
					"source" : [ "obj-4", 2 ],
					"destination" : [ "obj-11", 0 ],
					"hidden" : 0,
					"midpoints" : [  ]
				}

			}
, 			{
				"patchline" : 				{
					"source" : [ "obj-4", 3 ],
					"destination" : [ "obj-12", 0 ],
					"hidden" : 0,
					"midpoints" : [  ]
				}

			}
, 			{
				"patchline" : 				{
					"source" : [ "obj-4", 0 ],
					"destination" : [ "obj-2", 0 ],
					"hidden" : 0,
					"midpoints" : [  ]
				}

			}
, 			{
				"patchline" : 				{
					"source" : [ "obj-1", 0 ],
					"destination" : [ "obj-4", 0 ],
					"hidden" : 0,
					"midpoints" : [  ]
				}

			}
, 			{
				"patchline" : 				{
					"source" : [ "obj-10", 0 ],
					"destination" : [ "obj-5", 0 ],
					"hidden" : 0,
					"midpoints" : [  ]
				}

			}
, 			{
				"patchline" : 				{
					"source" : [ "obj-3", 0 ],
					"destination" : [ "obj-10", 0 ],
					"hidden" : 0,
					"midpoints" : [  ]
				}

			}
 ]
	}

}
