{
	"patcher" : 	{
		"fileversion" : 1,
		"rect" : [ 34.0, 56.0, 361.0, 229.0 ],
		"bglocked" : 0,
		"defrect" : [ 34.0, 56.0, 361.0, 229.0 ],
		"openrect" : [ 0.0, 0.0, 0.0, 0.0 ],
		"openinpresentation" : 0,
		"default_fontsize" : 12.0,
		"default_fontface" : 0,
		"default_fontname" : "Arial",
		"gridonopen" : 0,
		"gridsize" : [ 15.0, 15.0 ],
		"gridsnaponopen" : 0,
		"toolbarvisible" : 1,
		"boxanimatetime" : 200,
		"imprint" : 0,
		"boxes" : [ 			{
				"box" : 				{
					"maxclass" : "comment",
					"text" : "Messsages",
					"numinlets" : 1,
					"patching_rect" : [ 225.0, 17.0, 71.0, 20.0 ],
					"id" : "obj-8",
					"numoutlets" : 0,
					"fontname" : "Arial",
					"presentation_rect" : [ 233.0, 17.0, 0.0, 0.0 ],
					"fontsize" : 12.0
				}

			}
, 			{
				"box" : 				{
					"maxclass" : "newobj",
					"text" : "in 2",
					"numinlets" : 1,
					"patching_rect" : [ 240.0, 40.0, 30.0, 20.0 ],
					"id" : "obj-4",
					"numoutlets" : 1,
					"fontname" : "Arial",
					"outlettype" : [ "" ],
					"fontsize" : 12.0,
					"saved_object_attributes" : 					{
						"attr_comment" : ""
					}

				}

			}
, 			{
				"box" : 				{
					"maxclass" : "newobj",
					"text" : "out 1",
					"numinlets" : 1,
					"patching_rect" : [ 49.0, 167.0, 36.0, 20.0 ],
					"id" : "obj-9",
					"numoutlets" : 0,
					"fontname" : "Arial",
					"fontsize" : 11.595187,
					"saved_object_attributes" : 					{
						"attr_comment" : ""
					}

				}

			}
, 			{
				"box" : 				{
					"maxclass" : "comment",
					"text" : "Freq1 Amp1 Freq2 Amp2...",
					"numinlets" : 1,
					"patching_rect" : [ 98.0, 168.0, 156.0, 20.0 ],
					"id" : "obj-6",
					"numoutlets" : 0,
					"fontname" : "Arial",
					"fontsize" : 12.0
				}

			}
, 			{
				"box" : 				{
					"maxclass" : "comment",
					"text" : "fft analysis",
					"numinlets" : 1,
					"patching_rect" : [ 70.0, 17.0, 67.0, 20.0 ],
					"id" : "obj-5",
					"numoutlets" : 0,
					"fontname" : "Arial",
					"fontsize" : 12.0
				}

			}
, 			{
				"box" : 				{
					"maxclass" : "newobj",
					"text" : "fftin~ 1",
					"numinlets" : 1,
					"patching_rect" : [ 49.0, 40.0, 107.0, 20.0 ],
					"id" : "obj-2",
					"numoutlets" : 3,
					"fontname" : "Arial",
					"outlettype" : [ "signal", "signal", "signal" ],
					"fontsize" : 12.0
				}

			}
, 			{
				"box" : 				{
					"maxclass" : "newobj",
					"text" : "zsa.freqpeak~",
					"numinlets" : 2,
					"patching_rect" : [ 49.0, 111.0, 86.0, 20.0 ],
					"id" : "obj-1",
					"numoutlets" : 1,
					"fontname" : "Arial",
					"outlettype" : [ "" ],
					"fontsize" : 12.0
				}

			}
 ],
		"lines" : [ 			{
				"patchline" : 				{
					"source" : [ "obj-4", 0 ],
					"destination" : [ "obj-1", 0 ],
					"hidden" : 0,
					"color" : [ 0.0, 0.231373, 1.0, 1.0 ],
					"midpoints" : [  ]
				}

			}
, 			{
				"patchline" : 				{
					"source" : [ "obj-2", 0 ],
					"destination" : [ "obj-1", 0 ],
					"hidden" : 0,
					"midpoints" : [  ]
				}

			}
, 			{
				"patchline" : 				{
					"source" : [ "obj-2", 1 ],
					"destination" : [ "obj-1", 1 ],
					"hidden" : 0,
					"midpoints" : [ 102.5, 78.5, 125.5, 78.5 ]
				}

			}
, 			{
				"patchline" : 				{
					"source" : [ "obj-1", 0 ],
					"destination" : [ "obj-9", 0 ],
					"hidden" : 0,
					"midpoints" : [  ]
				}

			}
 ]
	}

}
